<?xml version="1.0" encoding="UTF-8"?>
<svg xmlns="http://www.w3.org/2000/svg" viewBox="0 0 181.45 190.67" aria-hidden="true">
  <g fill="#111111">
    <polygon points="110.05 63.3 90.36 72.31 0 .87 110.05 63.3"/>
    <polygon points="110.05 63.3 90.36 72.31 71.39 190.67 110.05 63.3 110.05 63.3"/>
    <polygon points="0 .87 70.97 82.62 71.39 190.67 90.36 72.31 0 .87"/>
    <polygon points="172.39 33.96 130.86 1.12 163.48 38.69 163.67 88.36 172.39 33.96 172.39 33.96"/>
    <polygon points="172.39 33.96 130.86 1.12 181.45 29.82 172.39 33.96"/>
    <polygon points="172.39 33.96 163.67 88.36 181.45 29.82 172.39 33.96"/>
    <polygon points="151.62 43.74 137.83 50.05 74.53 0 151.62 43.74"/>
    <polygon points="151.62 43.74 137.83 50.05 124.54 132.96 151.62 43.74 151.62 43.74"/>
    <polygon points="74.53 0 124.24 57.27 124.54 132.96 137.83 50.05 74.53 0"/>
  </g>
</svg> 